:SAMPLES-PER-SECOND 30
:FRAME-RANGE 1-668
:FULLY-SPECIFIED
:DEGREES
188
root  -0.692795 40.1732 25.804 -171.639 -1.92618 -174.939
RightUpLeg  -11.3805 -1.42784 -2.71444
RightLeg  14.3384 6.36234 1.4917
RightFoot  -3.85778 -0.724422 10.6447
RightToes  5.38607e-012 1.2921e-014 -6.02303e-014
Spine  -5.52574 -1.3778 1.95192
Spine1  8.35309 -1.06593 -2.22978
HEad  11.1022 -47.1542 6.27119
LeftShoulder1  0.813322 -0.168937 -16.9652
LeftArm  -12.9023 1.32211 -20.3564
LeftForeArm  15.0033 -4.56307 -8.03273
LeftHand  0.0320647 6.35886 6.96659
RightShoulder  1.61391 3.93038 15.6052
RightArm  -51.6748 24.3703 4.73357
RightForeArm  72.7044 16.6959 -0.5981
RightHand  -3.34335 0.721829 -58.4302
LeftUpLeg  -10.5097 1.90453 4.35874
LeftLeg  12.1991 4.23316 2.7957
LeftFoot  -8.34857 0.095872 -1.79613
LeftToes  -6.11857e-011 5.00151e-011 -2.22593e-011
189
root  -0.712172 40.161 25.9371 -171.451 -1.21054 -175.336
RightUpLeg  -11.333 -1.58095 -3.12093
RightLeg  13.3245 6.95034 1.43381
RightFoot  -3.8895 -0.695186 10.2411
RightToes  5.38607e-012 1.2921e-014 -6.02303e-014
Spine  -5.73501 -0.856212 2.90242
Spine1  8.87729 -0.144708 -3.83441
HEad  10.2481 -48.0248 6.63132
LeftShoulder1  0.798783 -0.128562 -16.804
LeftArm  -12.9465 -0.307113 -19.7094
LeftForeArm  15.1192 -4.22791 -8.08471
LeftHand  0.0237525 6.25495 6.42642
RightShoulder  1.70557 4.60155 14.8143
RightArm  -48.2204 24.9456 6.78884
RightForeArm  68.9482 8.77776 -2.51688
RightHand  -3.84744 1.4998 -59.4142
LeftUpLeg  -10.6888 2.16131 3.85366
LeftLeg  11.9902 4.6354 2.79522
LeftFoot  -8.17239 0.0999435 -1.83923
LeftToes  -6.11857e-011 5.00151e-011 -2.22593e-011
190
root  -0.731088 40.1421 26.0801 -171.189 -0.918762 -175.894
RightUpLeg  -11.4256 -1.41765 -3.63963
RightLeg  12.5126 6.81295 1.1264
RightFoot  -4.10178 -0.660451 9.97302
RightToes  5.38607e-012 1.2921e-014 -6.02303e-014
Spine  -6.00459 -0.548448 3.41524
Spine1  9.26402 0.461681 -4.95381
HEad  9.83439 -48.5217 6.34466
LeftShoulder1  0.840408 -0.328614 -16.658
LeftArm  -12.9012 -1.77853 -19.0514
LeftForeArm  14.9165 -3.56161 -8.14224
LeftHand  0.0187761 6.19306 5.96123
RightShoulder  1.74974 5.16485 13.8189
RightArm  -45.6315 25.6833 8.51812
RightForeArm  66.2651 2.46023 -3.18602
RightHand  -3.9545 1.73299 -59.119
LeftUpLeg  -11.0654 2.26142 3.2483
LeftLeg  11.8095 4.80313 2.6488
LeftFoot  -7.94024 0.101453 -1.81127
LeftToes  -6.11857e-011 5.00151e-011 -2.22593e-011
191
root  -0.752199 40.1233 26.2255 -171.086 -0.90274 -176.306
RightUpLeg  -11.439 -1.39658 -4.00505
RightLeg  11.9305 6.55712 0.858675
RightFoot  -4.22283 -0.645458 9.88975
RightToes  5.38607e-012 1.2921e-014 -6.02303e-014
Spine  -5.90614 -0.307544 4.20331
Spine1  9.39031 1.00981 -6.17501
HEad  9.63731 -49.0306 6.05629
LeftShoulder1  0.902077 -0.594908 -16.6617
LeftArm  -12.8669 -3.49853 -18.3001
LeftForeArm  14.6519 -2.7061 -8.21488
LeftHand  0.0162898 6.23579 5.66869
RightShoulder  1.76207 5.51644 13.0691
RightArm  -43.5779 26.0604 9.70166
RightForeArm  63.9483 -1.95951 -3.34328
RightHand  -3.9416 1.84569 -58.1867
LeftUpLeg  -11.3984 2.18444 2.78985
LeftLeg  11.7846 4.88801 2.57432
LeftFoot  -7.75534 0.0964025 -1.59167
LeftToes  -6.11857e-011 5.00151e-011 -2.22593e-011
